<svg xmlns="http://www.w3.org/2000/svg" width="161" height="160" viewBox="0 0 161 160" fill="none">
  <path d="M77.2188 10.5939C75.6875 11.3127 74.125 12.9064 73.5 14.4377C73.1875 15.1252 73 16.5314 73 17.8127V20.0002H67.375C59.9063 20.0002 60.5 19.3752 60.5 27.5002C60.5 33.3439 60.5313 33.7814 61.125 34.3752C61.75 35.0002 62.1562 35.0002 80.5 35.0002C98.8438 35.0002 99.25 35.0002 99.875 34.3752C100.469 33.7814 100.5 33.3439 100.5 27.5002C100.5 19.3752 101.094 20.0002 93.625 20.0002H88V17.7189C87.9688 14.2189 86.4375 11.6877 83.5625 10.5002C81.9375 9.81266 78.7812 9.87516 77.2188 10.5939Z" fill="url(#paint0_linear_291_14534)"/>
  <path d="M35.25 28.1252C34.6875 28.4689 33.9688 29.1877 33.625 29.7502C33 30.7814 33 31.4689 33 88.7502C33 146.031 33 146.719 33.625 147.75C33.9688 148.313 34.6875 149.031 35.25 149.375C36.2812 150 36.9375 150 80.5 150C124.062 150 124.719 150 125.75 149.375C126.313 149.031 127.031 148.313 127.375 147.75C128 146.719 128 146.031 128 88.7502C128 31.4689 128 30.7814 127.375 29.7502C127.031 29.1877 126.313 28.4689 125.75 28.1252C124.781 27.5314 124.156 27.5002 115.156 27.5002H105.594L105.438 30.7189C105.219 34.5627 104.625 36.1877 102.781 37.8439C100.531 39.8752 101.031 39.8439 80.5 39.8439C59.9687 39.8439 60.4688 39.8752 58.2188 37.8439C56.375 36.1877 55.7813 34.5627 55.5625 30.7189L55.4063 27.5002H45.8438C36.8438 27.5002 36.2188 27.5314 35.25 28.1252ZM115.5 137.5H45.5V45.0002H115.5V137.5Z" fill="url(#paint1_linear_291_14534)"/>
  <path d="M61.1875 72.5939C60.7188 73.0627 60.5 73.7189 60.5 74.5002C60.5 75.4689 60.75 75.9377 62.125 77.3752L63.75 79.0939L62.125 80.7189C60.75 82.1252 60.5 82.5314 60.5 83.5314C60.5 85.0314 61.625 86.2502 63 86.2502C63.75 86.2502 64.375 85.8752 65.7812 84.5314L67.5625 82.8439L69.125 84.4064C71.1875 86.4689 72.5625 86.7502 73.9375 85.3752C75.4062 83.8752 75.0938 82.4689 72.7188 80.1877L71.4375 78.9377L73.1875 77.1252C74.8438 75.4064 74.9375 75.1877 74.7812 74.1252C74.5312 72.6877 73.5938 71.8752 72.1562 71.8752C71.2812 71.8752 70.75 72.1877 69.375 73.4689L67.6875 75.0939L66 73.4689C64.5312 72.1252 64.0937 71.8752 63.0625 71.8752C62.2187 71.8752 61.6562 72.0939 61.1875 72.5939Z" fill="url(#paint2_linear_291_14534)"/>
  <path d="M87.3125 72.3127C86.5937 72.8439 86.125 74.1564 86.3437 75.0314C86.4375 75.4377 87.2187 76.5314 88.0937 77.4064L89.6875 79.0627L88 80.7814C86.5312 82.2502 86.3125 82.6564 86.3437 83.6564C86.375 84.5314 86.5937 85.0314 87.25 85.5627C88.5625 86.6877 89.9375 86.3439 91.875 84.4064L93.4375 82.8439L95.2187 84.5314C97.2812 86.5002 98.3437 86.7189 99.75 85.5002C100.406 84.9377 100.625 84.5002 100.625 83.6252C100.625 82.6564 100.344 82.2189 98.9375 80.7814L97.25 79.0627L98.8437 77.4064C100.594 75.5939 100.906 74.7814 100.438 73.4064C100.062 72.3127 99.3437 71.8752 97.9375 71.8752C97.125 71.8752 96.5937 72.2189 95.1875 73.5939L93.4375 75.3127L91.75 73.5939C90.3125 72.1564 89.875 71.8752 88.9375 71.8752C88.3437 71.8752 87.5937 72.0627 87.3125 72.3127Z" fill="url(#paint3_linear_291_14534)"/>
  <path d="M77.3438 95.9377C74.9375 96.3127 71.9375 97.3439 69.9062 98.5002C66.0938 100.688 61.75 105.781 61.75 108.125C61.75 109.594 62.7812 110.625 64.2812 110.625C65.6875 110.625 65.875 110.469 67.625 107.969C70.1562 104.25 73.9375 101.938 78.5625 101.188C83.7188 100.375 89.8125 103 92.8438 107.344C94.8438 110.188 95.3438 110.625 96.5938 110.625C98 110.625 99.25 109.469 99.25 108.219C99.25 106.844 97.4688 104.094 95 101.656C93.2188 99.8752 92.125 99.1252 89.8125 98.0314C88.2188 97.2502 86.2812 96.4689 85.5 96.3127C83.4062 95.8127 79.3438 95.6252 77.3438 95.9377Z" fill="url(#paint4_linear_291_14534)"/>
  <defs>
    <linearGradient id="paint0_linear_291_14534" x1="80.5" y1="10.0181" x2="80.5" y2="150" gradientUnits="userSpaceOnUse">
      <stop stop-color="#F4E3E2"/>
      <stop offset="1" stop-color="#CB9593"/>
    </linearGradient>
    <linearGradient id="paint1_linear_291_14534" x1="80.5" y1="10.0181" x2="80.5" y2="150" gradientUnits="userSpaceOnUse">
      <stop stop-color="#F4E3E2"/>
      <stop offset="1" stop-color="#CB9593"/>
    </linearGradient>
    <linearGradient id="paint2_linear_291_14534" x1="80.5" y1="10.0181" x2="80.5" y2="150" gradientUnits="userSpaceOnUse">
      <stop stop-color="#F4E3E2"/>
      <stop offset="1" stop-color="#CB9593"/>
    </linearGradient>
    <linearGradient id="paint3_linear_291_14534" x1="80.5" y1="10.0181" x2="80.5" y2="150" gradientUnits="userSpaceOnUse">
      <stop stop-color="#F4E3E2"/>
      <stop offset="1" stop-color="#CB9593"/>
    </linearGradient>
    <linearGradient id="paint4_linear_291_14534" x1="80.5" y1="10.0181" x2="80.5" y2="150" gradientUnits="userSpaceOnUse">
      <stop stop-color="#F4E3E2"/>
      <stop offset="1" stop-color="#CB9593"/>
    </linearGradient>
  </defs>
</svg>