<svg fill="none" height="56" viewBox="0 0 56 56" width="56" xmlns="http://www.w3.org/2000/svg" xmlns:xlink="http://www.w3.org/1999/xlink"><mask id="a" height="9" maskUnits="userSpaceOnUse" width="18" x="17" y="21"><path d="m17.3485 21.1509h16.7128v8.4963h-16.7128z" fill="#fff"/></mask><mask id="b" height="13" maskUnits="userSpaceOnUse" width="22" x="17" y="8"><path d="m17.3485 8.3999h21.2473v12.5802h-21.2473z" fill="#fff"/></mask><g mask="url(#a)"><path d="m18.0592 21.8941h1.4206v7.1024h-1.4206zm3.1492.7106c.21.0587.3866.1493.5226.2667.0314.028.1274.1266.3107.3113l.0706.0713c.2894.2927.3034.3053.3307.3293.2313.1994.5186.344.8546.4307l3.8526.0106c.2693 0 .4973.3254.4973.7107 0 .3846-.228.71-.4973.71h-1.9886c-.1967 0-.3554.1593-.3554.3553s.1587.3553.3554.3553h2.8405l4.3032-1.3333.038-.0146c.3587-.1594.7787.002.9387.3599.0766.1734.0819.366.014.5434-.068.1766-.2007.3173-.3807.3973l-4.6372 2.1779h-8.0884v-5.6818zm-3.4686 7.1024h2.0593c.2153 0 .3906-.1753.3906-.3906v-.32h8.2471l4.7738-2.2426c.3467-.1533.6127-.434.748-.7887.136-.3539.126-.7399-.0287-1.0866-.3153-.7086-1.1446-1.0313-1.8552-.728l-3.8439 1.206c.0787-.1887.1267-.3973.1267-.6213 0-.7833-.5414-1.4206-1.2073-1.4206h-3.7179c-.21-.0594-.3867-.1494-.5247-.2687-.0246-.0213-.0359-.034-.2906-.2913l-.07-.0713c-.2133-.2154-.3213-.3234-.3493-.3474-.2307-.2-.5187-.3439-.8547-.4306l-1.1533-.0087v-.3226c0-.2154-.1753-.39-.3906-.39h-2.0593c-.216 0-.3913.1746-.3913.39v7.7424c0 .2153.1753.3906.3913.3906z" fill="#862c2c"/></g><g mask="url(#b)"><path d="m37.9458 16.2123h-1.4206v-7.10242h1.4206zm-2.6093-.688c-.3606.134-.5493.3933-.7153.6233-.046.0634-.0933.1294-.1473.196-.004.0047-.4066.4893-1.116.81-.3006.1367-.7846.2673-1.4492.18v-1.9493c1.4059-.6226 1.9659-1.8626 2.1079-2.2439.0687-.184-.024-.3887-.208-.4566-.1833-.068-.3887.0246-.4567.2079-.0879.2354-.5933 1.4327-1.9212 1.922-1.464.5386-2.7413-.2313-2.8826-.3213-.0093-.006-.02-.0067-.0293-.0114-.022-.0113-.044-.0193-.0673-.026-.0214-.006-.0414-.0106-.0634-.0126-.024-.002-.0466-.0007-.0706.002-.0214.0026-.0414.006-.062.012-.0227.0066-.0427.0166-.064.028-.0207.0106-.0394.0226-.0574.038-.0086.0073-.0193.01-.0273.018l-2.0953 2.0879c-.2686.268-.7366.2686-1.0046 0-.2766-.2767-.2766-.7273 0-1.0047l2.7112-2.7105c.1387-.1387.1387-.364 0-.5027-.0919-.092-.2206-.1166-.3386-.0866-.0287-.0074-.056-.018-.0873-.018h-2.8413l3.3146-2.48595h8.0497v5.62645c-.168-.0026-.328.022-.4787.078zm-4.1378 4.5945h-.5727c.0914-.282.3014-.512.5727-.6273zm-13.1395 0v-.6626c.1533.0486.2939.1333.4113.2506.1173.1174.202.258.2506.412zm0-7.1024h.6266c-.1147.2707-.3447.4813-.6266.572zm6.4451 4.1139c.2686.2686.6253.4166 1.0046.4166.3746 0 .7253-.1453.9926-.406-.2513.8967-1.0746 1.5573-2.0506 1.5573-1.1746 0-2.1306-.956-2.1306-2.1306 0-1.1753.956-2.1306 2.1306-2.1306.218 0 .432.036.6373.1007l-.5839.584c-.5534.5539-.5534 1.4552 0 2.0086zm2.1059-4.1139-.9733.9733c-.3707-.1707-.774-.2633-1.186-.2633-1.5666 0-2.8405 1.2746-2.8405 2.8412s1.2739 2.8406 2.8405 2.8406 2.8413-1.274 2.8413-2.8406c0-.0666-.0094-.1326-.014-.1986l1.1386-1.1353c.374.1946 1.0726.4833 1.9366.4833.2673 0 .5513-.032.8453-.0987v3.1286c-.6653.1566-1.1786.6993-1.302 1.3719h-10.4456c-.062-.3446-.2253-.6606-.4786-.9139-.2534-.2534-.5674-.4174-.9133-.4787v-4.4092c.6726-.124 1.2146-.636 1.3712-1.3006zm11.6549-4.6165h-2.0593c-.2153 0-.3906.17466-.3906.38999v.31999h-8.2864l-4.2612 3.19592h-5.5284c-.2154 0-.3907.1753-.3907.3906v7.7424c0 .2153.1753.39.3907.39h13.7788c.2153 0 .3907-.1747.3907-.39v-2.3906c.1466.016.2873.024.42.024.5759 0 1.0192-.134 1.3226-.2713.8699-.3933 1.3546-.9853 1.3746-1.01.062-.0773.118-.154.1707-.2266.1499-.2073.2353-.318.3873-.374.0693-.026.1466-.0373.2313-.0353v.3773c0 .2153.1753.39.3906.39h2.0593c.216 0 .3907-.1747.3907-.39v-7.74241c0-.21533-.1747-.38999-.3907-.38999z" fill="#862c2c"/></g><g fill="#862c2c"><path d="m19.4812 16.9264h.3553l.3567-.002-.0014-.712-.7119.002z"/><path d="m29.4248 16.9264.3567-.002-.002-.712-.712.002.002.712z"/><path d="m11.2999 41.1542c1.3673 0 2.548-.7593 3.1553-1.8813l-.9813-.526c-.4093.7713-1.2273 1.274-2.174 1.274-1.37924 0-2.46653-1.0753-2.46653-2.4666 0-1.3906 1.08729-2.4659 2.46653-2.4659.9467 0 1.7647.5026 2.174 1.2739l.9813-.526c-.6073-1.1219-1.788-1.8812-3.1553-1.8812-1.98722 0-3.59983 1.6126-3.59983 3.5992 0 1.9872 1.61261 3.5999 3.59983 3.5999z"/><path d="m20.4555 41.0608h1.2386l-2.5359-7.0125h-1.274l-2.5365 7.0125h1.2392l.502-1.4847h2.8639zm-3.0272-2.4893 1.0986-3.2725 1.0986 3.2725z"/><path d="m26.5603 34.0483h-3.5179v1.0633h2.3726v4.0672c0 .5493-.362.9233-.8533.9233-.444 0-.7826-.3153-.8293-.7946l-1.146.304c.1287.9586.842 1.5426 1.9753 1.5426 1.2506 0 1.9986-.7013 1.9986-1.8346z"/><path d="m32.6775 35.0883v-1.04h-4.0205v7.0125h4.0205v-1.04h-2.8752v-1.9406h2.4892v-1.0513h-2.4892v-1.9406z"/><path d="m37.9294 38.0102c.8766-.1867 1.5193-.958 1.5193-1.9046 0-1.146-.888-2.0573-2.022-2.0573h-2.7465v7.0125h1.1453v-2.9453h.9699l1.8586 2.9453h1.2853zm-2.1039-.888v-2.0106h1.4613c.5959 0 1.0399.4094 1.0399 1.0053 0 .596-.444 1.0053-1.0399 1.0053z"/><path d="m44.7009 41.1542c1.9866 0 3.5993-1.6127 3.5993-3.5999 0-1.9866-1.6127-3.5992-3.5993-3.5992-1.9872 0-3.5998 1.6126-3.5998 3.5992 0 1.9872 1.6126 3.5999 3.5998 3.5999zm0-1.1333c-1.3792 0-2.4665-1.0753-2.4665-2.4666 0-1.3906 1.0873-2.4659 2.4665-2.4659 1.3907 0 2.466 1.0753 2.466 2.4659 0 1.3913-1.0753 2.4666-2.466 2.4666z"/><path d="m17.276 47.4045c.4767 0 .8913-.2613 1.1106-.6466l-.228-.1287c-.1699.3066-.5013.51-.8826.51-.56 0-1.0113-.448-1.0113-1.0113 0-.564.4513-1.012 1.0113-1.012.3813 0 .7127.2033.8826.51l.228-.1287c-.2193-.3853-.6339-.6466-1.1106-.6466-.7046 0-1.2766.5726-1.2766 1.2773 0 .7046.572 1.2766 1.2766 1.2766z"/><path d="m22.0508 47.371h.29l-.8993-2.4872h-.2946l-.8993 2.4872h.2899l.2034-.5806h1.1066zm-1.2226-.8333.468-1.3386.4646 1.3386z"/><path d="m24.9936 47.4045c.4226 0 .7666-.2533.7666-.688 0-.8459-1.2106-.6386-1.2106-1.2313 0-.2486.2033-.3693.4353-.3693.1907 0 .3487.0793.448.22l.2073-.174c-.1366-.174-.3773-.3113-.6633-.3113-.3813 0-.692.2493-.692.6553 0 .8 1.21.6013 1.21 1.2186 0 .2653-.2193.4147-.4973.4147-.282 0-.4847-.1534-.572-.3813l-.2407.1406c.1287.3067.4394.506.8087.506z"/><path d="m29.5447 44.8838v1.1113h-1.3719v-1.1113h-.2653v2.4872h.2653v-1.1106h1.3719v1.1106h.2654v-2.4872z"/><path d="m32.1598 47.371h.2653v-2.4872h-.2653z"/><path d="m36.1515 45.1411v-.2573h-1.3593v2.4872h1.3593v-.2573h-1.0939v-.858h.9533v-.2566h-.9533v-.858z"/><path d="m39.4348 46.2351c.3273-.0454.576-.3187.576-.6547 0-.39-.3107-.6966-.692-.6966h-.8913v2.4872h.2653v-1.1233h.468l.7053 1.1233h.302zm-.742-.24v-.846h.6093c.2487 0 .4433.174.4433.4227 0 .2533-.1906.4233-.4433.4233z"/></g></svg>