<svg width="56" height="56" viewBox="0 0 56 56" fill="none" xmlns="http://www.w3.org/2000/svg">
<mask id="mask0_106_11633" style="mask-type:luminance" maskUnits="userSpaceOnUse" x="17" y="21" width="18" height="9">
<path d="M17.3485 21.1509H34.0613V29.6472H17.3485V21.1509Z" fill="white"/>
</mask>
<g mask="url(#mask0_106_11633)">
<path d="M18.0592 21.8941H19.4798V28.9965H18.0592V21.8941ZM21.2084 22.6047C21.4184 22.6634 21.595 22.754 21.731 22.8714C21.7624 22.8994 21.8584 22.998 22.0417 23.1827L22.1123 23.254C22.4017 23.5467 22.4157 23.5593 22.443 23.5833C22.6743 23.7827 22.9616 23.9273 23.2976 24.014L27.1502 24.0246C27.4195 24.0246 27.6475 24.35 27.6475 24.7353C27.6475 25.1199 27.4195 25.4453 27.1502 25.4453H25.1616C24.9649 25.4453 24.8062 25.6046 24.8062 25.8006C24.8062 25.9966 24.9649 26.1559 25.1616 26.1559H28.0021L32.3053 24.8226L32.3433 24.808C32.702 24.6486 33.122 24.81 33.282 25.1679C33.3586 25.3413 33.3639 25.5339 33.296 25.7113C33.228 25.8879 33.0953 26.0286 32.9153 26.1086L28.2781 28.2865H20.1897V22.6047H21.2084ZM17.7398 29.7071H19.7991C20.0144 29.7071 20.1897 29.5318 20.1897 29.3165V28.9965H28.4368L33.2106 26.7539C33.5573 26.6006 33.8233 26.3199 33.9586 25.9652C34.0946 25.6113 34.0846 25.2253 33.9299 24.8786C33.6146 24.17 32.7853 23.8473 32.0747 24.1506L28.2308 25.3566C28.3095 25.1679 28.3575 24.9593 28.3575 24.7353C28.3575 23.952 27.8161 23.3147 27.1502 23.3147H23.4323C23.2223 23.2553 23.0456 23.1653 22.9076 23.046C22.883 23.0247 22.8717 23.012 22.617 22.7547L22.547 22.6834C22.3337 22.468 22.2257 22.36 22.1977 22.336C21.967 22.136 21.679 21.9921 21.343 21.9054L20.1897 21.8967V21.5741C20.1897 21.3587 20.0144 21.1841 19.7991 21.1841H17.7398C17.5238 21.1841 17.3485 21.3587 17.3485 21.5741V29.3165C17.3485 29.5318 17.5238 29.7071 17.7398 29.7071Z" fill="#862C2C"/>
</g>
<mask id="mask1_106_11633" style="mask-type:luminance" maskUnits="userSpaceOnUse" x="17" y="8" width="22" height="13">
<path d="M17.3485 8.3999H38.5958V20.9801H17.3485V8.3999Z" fill="white"/>
</mask>
<g mask="url(#mask1_106_11633)">
<path d="M37.9458 16.2123H36.5252V9.10988H37.9458V16.2123ZM35.3365 15.5243C34.9759 15.6583 34.7872 15.9176 34.6212 16.1476C34.5752 16.211 34.5279 16.277 34.4739 16.3436C34.4699 16.3483 34.0673 16.8329 33.3579 17.1536C33.0573 17.2903 32.5733 17.4209 31.9087 17.3336V15.3843C33.3146 14.7617 33.8746 13.5217 34.0166 13.1404C34.0853 12.9564 33.9926 12.7517 33.8086 12.6838C33.6253 12.6158 33.4199 12.7084 33.3519 12.8917C33.264 13.1271 32.7586 14.3244 31.4307 14.8137C29.9667 15.3523 28.6894 14.5824 28.5481 14.4924C28.5388 14.4864 28.5281 14.4857 28.5188 14.481C28.4968 14.4697 28.4748 14.4617 28.4515 14.455C28.4301 14.449 28.4101 14.4444 28.3881 14.4424C28.3641 14.4404 28.3415 14.4417 28.3175 14.4444C28.2961 14.447 28.2761 14.4504 28.2555 14.4564C28.2328 14.463 28.2128 14.473 28.1915 14.4844C28.1708 14.495 28.1521 14.507 28.1341 14.5224C28.1255 14.5297 28.1148 14.5324 28.1068 14.5404L26.0115 16.6283C25.7429 16.8963 25.2749 16.8969 25.0069 16.6283C24.7303 16.3516 24.7303 15.901 25.0069 15.6236L27.7181 12.9131C27.8568 12.7744 27.8568 12.5491 27.7181 12.4104C27.6262 12.3184 27.4975 12.2938 27.3795 12.3238C27.3508 12.3164 27.3235 12.3058 27.2922 12.3058H24.4509L27.7655 9.81985H35.8152V15.4463C35.6472 15.4437 35.4872 15.4683 35.3365 15.5243ZM31.1987 20.1188H30.626C30.7174 19.8368 30.9274 19.6068 31.1987 19.4915V20.1188ZM18.0592 20.1188V19.4562C18.2125 19.5048 18.3531 19.5895 18.4705 19.7068C18.5878 19.8242 18.6725 19.9648 18.7211 20.1188H18.0592ZM18.0592 13.0164H18.6858C18.5711 13.2871 18.3411 13.4977 18.0592 13.5884V13.0164ZM24.5043 17.1303C24.7729 17.3989 25.1296 17.5469 25.5089 17.5469C25.8835 17.5469 26.2342 17.4016 26.5015 17.1409C26.2502 18.0376 25.4269 18.6982 24.4509 18.6982C23.2763 18.6982 22.3203 17.7422 22.3203 16.5676C22.3203 15.3923 23.2763 14.437 24.4509 14.437C24.6689 14.437 24.8829 14.473 25.0882 14.5377L24.5043 15.1217C23.9509 15.6756 23.9509 16.5769 24.5043 17.1303ZM26.6102 13.0164L25.6369 13.9897C25.2662 13.819 24.8629 13.7264 24.4509 13.7264C22.8843 13.7264 21.6104 15.001 21.6104 16.5676C21.6104 18.1342 22.8843 19.4082 24.4509 19.4082C26.0175 19.4082 27.2922 18.1342 27.2922 16.5676C27.2922 16.501 27.2828 16.435 27.2782 16.369L28.4168 15.2337C28.7908 15.4283 29.4894 15.717 30.3534 15.717C30.6207 15.717 30.9047 15.685 31.1987 15.6183V18.7469C30.5334 18.9035 30.0201 19.4462 29.8967 20.1188H19.4511C19.3891 19.7742 19.2258 19.4582 18.9725 19.2049C18.7191 18.9515 18.4051 18.7875 18.0592 18.7262V14.317C18.7318 14.193 19.2738 13.681 19.4304 13.0164H26.6102ZM38.2651 8.3999H36.2058C35.9905 8.3999 35.8152 8.57456 35.8152 8.78989V9.10988H27.5288L23.2676 12.3058H17.7392C17.5238 12.3058 17.3485 12.4811 17.3485 12.6964V20.4388C17.3485 20.6541 17.5238 20.8288 17.7392 20.8288H31.518C31.7333 20.8288 31.9087 20.6541 31.9087 20.4388V18.0482C32.0553 18.0642 32.196 18.0722 32.3287 18.0722C32.9046 18.0722 33.3479 17.9382 33.6513 17.8009C34.5212 17.4076 35.0059 16.8156 35.0259 16.7909C35.0879 16.7136 35.1439 16.6369 35.1966 16.5643C35.3465 16.357 35.4319 16.2463 35.5839 16.1903C35.6532 16.1643 35.7305 16.153 35.8152 16.155V16.5323C35.8152 16.7476 35.9905 16.9223 36.2058 16.9223H38.2651C38.4811 16.9223 38.6558 16.7476 38.6558 16.5323V8.78989C38.6558 8.57456 38.4811 8.3999 38.2651 8.3999Z" fill="#862C2C"/>
</g>
<path d="M19.4812 16.9264H19.8365L20.1932 16.9244L20.1918 16.2124L19.4799 16.2144L19.4812 16.9264Z" fill="#862C2C"/>
<path d="M29.4248 16.9264L29.7815 16.9244L29.7795 16.2124L29.0675 16.2144L29.0695 16.9264H29.4248Z" fill="#862C2C"/>
<path d="M11.2999 41.1542C12.6672 41.1542 13.8479 40.3949 14.4552 39.2729L13.4739 38.7469C13.0646 39.5182 12.2466 40.0209 11.2999 40.0209C9.92066 40.0209 8.83337 38.9456 8.83337 37.5543C8.83337 36.1637 9.92066 35.0884 11.2999 35.0884C12.2466 35.0884 13.0646 35.591 13.4739 36.3623L14.4552 35.8363C13.8479 34.7144 12.6672 33.9551 11.2999 33.9551C9.31268 33.9551 7.70007 35.5677 7.70007 37.5543C7.70007 39.5415 9.31268 41.1542 11.2999 41.1542Z" fill="#862C2C"/>
<path d="M20.4555 41.0608H21.6941L19.1582 34.0483H17.8842L15.3477 41.0608H16.5869L17.0889 39.5761H19.9528L20.4555 41.0608ZM17.4283 38.5715L18.5269 35.299L19.6255 38.5715H17.4283Z" fill="#862C2C"/>
<path d="M26.5603 34.0483H23.0424V35.1116H25.415V39.1788C25.415 39.7281 25.053 40.1021 24.5617 40.1021C24.1177 40.1021 23.7791 39.7868 23.7324 39.3075L22.5864 39.6115C22.7151 40.5701 23.4284 41.1541 24.5617 41.1541C25.8123 41.1541 26.5603 40.4528 26.5603 39.3195V34.0483Z" fill="#862C2C"/>
<path d="M32.6775 35.0883V34.0483H28.657V41.0608H32.6775V40.0208H29.8023V38.0802H32.2915V37.0289H29.8023V35.0883H32.6775Z" fill="#862C2C"/>
<path d="M37.9294 38.0102C38.806 37.8235 39.4487 37.0522 39.4487 36.1056C39.4487 34.9596 38.5607 34.0483 37.4267 34.0483H34.6802V41.0608H35.8255V38.1155H36.7954L38.654 41.0608H39.9393L37.9294 38.0102ZM35.8255 37.1222V35.1116H37.2868C37.8827 35.1116 38.3267 35.521 38.3267 36.1169C38.3267 36.7129 37.8827 37.1222 37.2868 37.1222H35.8255Z" fill="#862C2C"/>
<path d="M44.7009 41.1542C46.6875 41.1542 48.3002 39.5415 48.3002 37.5543C48.3002 35.5677 46.6875 33.9551 44.7009 33.9551C42.7137 33.9551 41.1011 35.5677 41.1011 37.5543C41.1011 39.5415 42.7137 41.1542 44.7009 41.1542ZM44.7009 40.0209C43.3217 40.0209 42.2344 38.9456 42.2344 37.5543C42.2344 36.1637 43.3217 35.0884 44.7009 35.0884C46.0916 35.0884 47.1669 36.1637 47.1669 37.5543C47.1669 38.9456 46.0916 40.0209 44.7009 40.0209Z" fill="#862C2C"/>
<path d="M17.276 47.4045C17.7527 47.4045 18.1673 47.1432 18.3866 46.7579L18.1586 46.6292C17.9887 46.9358 17.6573 47.1392 17.276 47.1392C16.716 47.1392 16.2647 46.6912 16.2647 46.1279C16.2647 45.5639 16.716 45.1159 17.276 45.1159C17.6573 45.1159 17.9887 45.3192 18.1586 45.6259L18.3866 45.4972C18.1673 45.1119 17.7527 44.8506 17.276 44.8506C16.5714 44.8506 15.9994 45.4232 15.9994 46.1279C15.9994 46.8325 16.5714 47.4045 17.276 47.4045Z" fill="#862C2C"/>
<path d="M22.0508 47.371H22.3408L21.4415 44.8838H21.1469L20.2476 47.371H20.5375L20.7409 46.7904H21.8475L22.0508 47.371ZM20.8282 46.5377L21.2962 45.1991L21.7608 46.5377H20.8282Z" fill="#862C2C"/>
<path d="M24.9936 47.4045C25.4162 47.4045 25.7602 47.1512 25.7602 46.7165C25.7602 45.8706 24.5496 46.0779 24.5496 45.4852C24.5496 45.2366 24.7529 45.1159 24.9849 45.1159C25.1756 45.1159 25.3336 45.1952 25.4329 45.3359L25.6402 45.1619C25.5036 44.9879 25.2629 44.8506 24.9769 44.8506C24.5956 44.8506 24.2849 45.0999 24.2849 45.5059C24.2849 46.3059 25.4949 46.1072 25.4949 46.7245C25.4949 46.9898 25.2756 47.1392 24.9976 47.1392C24.7156 47.1392 24.5129 46.9858 24.4256 46.7579L24.1849 46.8985C24.3136 47.2052 24.6243 47.4045 24.9936 47.4045Z" fill="#862C2C"/>
<path d="M29.5447 44.8838V45.9951H28.1728V44.8838H27.9075V47.371H28.1728V46.2604H29.5447V47.371H29.8101V44.8838H29.5447Z" fill="#862C2C"/>
<path d="M32.1598 47.371H32.4251V44.8838H32.1598V47.371Z" fill="#862C2C"/>
<path d="M36.1515 45.1411V44.8838H34.7922V47.371H36.1515V47.1137H35.0576V46.2557H36.0109V45.9991H35.0576V45.1411H36.1515Z" fill="#862C2C"/>
<path d="M39.4348 46.2351C39.7621 46.1897 40.0108 45.9164 40.0108 45.5804C40.0108 45.1904 39.7001 44.8838 39.3188 44.8838H38.4275V47.371H38.6928V46.2477H39.1608L39.8661 47.371H40.1681L39.4348 46.2351ZM38.6928 45.9951V45.1491H39.3021C39.5508 45.1491 39.7454 45.3231 39.7454 45.5718C39.7454 45.8251 39.5548 45.9951 39.3021 45.9951H38.6928Z" fill="#862C2C"/>
</svg>
