<svg width="48" height="48" viewBox="0 0 48 48" fill="none" xmlns="http://www.w3.org/2000/svg">
<path d="M34.4602 19.56L30.0202 24L34.4602 28.44C35.0402 29.02 35.0402 29.98 34.4602 30.56C34.1602 30.86 33.7802 31 33.4002 31C33.0202 31 32.6402 30.86 32.3402 30.56L27.9002 26.12L23.4602 30.56C23.1602 30.86 22.7802 31 22.4002 31C22.0202 31 21.6402 30.86 21.3402 30.56C21.0613 30.2777 20.9048 29.8969 20.9048 29.5C20.9048 29.1031 21.0613 28.7223 21.3402 28.44L25.7802 24L21.3402 19.56C20.7602 18.98 20.7602 18.02 21.3402 17.44C21.9202 16.86 22.8802 16.86 23.4602 17.44L27.9002 21.88L32.3402 17.44C32.9202 16.86 33.8802 16.86 34.4602 17.44C35.0402 18.02 35.0402 18.98 34.4602 19.56ZM42.6402 14V34C42.6402 35.92 41.0802 37.5 39.1402 37.5H15.2802C14.0602 37.5 12.9602 36.88 12.3202 35.86L5.74023 25.32C5.24023 24.52 5.24023 23.48 5.74023 22.66L12.3202 12.14C12.9602 11.12 14.0802 10.5 15.2802 10.5H39.1602C41.0802 10.5 42.6602 12.08 42.6602 14H42.6402ZM39.6402 14C39.6402 13.72 39.4202 13.5 39.1402 13.5H15.2802C15.1002 13.5 14.9402 13.58 14.8602 13.74L8.44023 24L14.8602 34.26C14.9602 34.4 15.1202 34.5 15.2802 34.5H39.1602C39.4402 34.5 39.6602 34.28 39.6602 34V14H39.6402Z" fill="#B52626"/>
</svg>
