<svg width="28" height="28" viewBox="0 0 28 28" fill="none" xmlns="http://www.w3.org/2000/svg">
<path d="M6.46332 22.7735C5.75165 22.7735 5.08665 22.5285 4.60832 22.0735C4.00165 21.5018 3.70998 20.6385 3.81498 19.7051L4.24665 15.9251C4.32832 15.2135 4.75998 14.2685 5.26165 13.7551L14.84 3.61681C17.2317 1.08514 19.7283 1.01514 22.26 3.40681C24.7917 5.79847 24.8617 8.29514 22.47 10.8268L12.8917 20.9651C12.4017 21.4901 11.4917 21.9801 10.78 22.0968L7.02332 22.7385C6.82498 22.7501 6.64998 22.7735 6.46332 22.7735ZM18.585 3.39514C17.6867 3.39514 16.905 3.95514 16.1117 4.79514L6.53332 14.9451C6.29998 15.1901 6.03165 15.7735 5.98498 16.1118L5.55332 19.8918C5.50665 20.2768 5.59998 20.5918 5.80998 20.7901C6.01998 20.9885 6.33498 21.0585 6.71998 21.0001L10.4767 20.3585C10.815 20.3001 11.375 19.9968 11.6083 19.7518L21.1867 9.61347C22.6333 8.07347 23.1583 6.65014 21.0467 4.66681C20.1133 3.76847 19.3083 3.39514 18.585 3.39514Z" fill="currentColor"/>
<path d="M20.2302 12.7751C20.2068 12.7751 20.1718 12.7751 20.1485 12.7751C16.5085 12.4135 13.5802 9.64848 13.0202 6.03182C12.9502 5.55348 13.2768 5.11015 13.7552 5.02848C14.2335 4.95848 14.6768 5.28515 14.7585 5.76348C15.2018 8.58682 17.4885 10.7568 20.3352 11.0368C20.8135 11.0835 21.1635 11.5151 21.1168 11.9935C21.0585 12.4368 20.6735 12.7751 20.2302 12.7751Z" fill="currentColor"/>
<path d="M24.5 26.5415H3.5C3.02167 26.5415 2.625 26.1448 2.625 25.6665C2.625 25.1882 3.02167 24.7915 3.5 24.7915H24.5C24.9783 24.7915 25.375 25.1882 25.375 25.6665C25.375 26.1448 24.9783 26.5415 24.5 26.5415Z" fill="currentColor"/>
</svg>
