<svg width="24" height="24" viewBox="0 0 24 24" fill="none" xmlns="http://www.w3.org/2000/svg">
<path d="M11.3711 1.56302C11.3008 1.59817 11.207 1.68411 11.164 1.75442C11.0937 1.8677 11.0859 1.94973 11.0859 2.64114V3.40285L10.7578 3.51223C9.49218 3.92238 8.58594 5.12159 8.58594 6.3794C8.58594 6.77393 8.65625 6.9419 8.86328 7.05518C8.98828 7.12158 9.15625 7.12549 11.7109 7.12549C14.2656 7.12549 14.4336 7.12158 14.5586 7.05518C14.7656 6.9419 14.8359 6.77393 14.8359 6.3794C14.8359 5.12159 13.9297 3.92238 12.664 3.51223L12.3359 3.40285V2.65676C12.3359 1.81302 12.3086 1.70364 12.0586 1.57083C11.8945 1.48099 11.543 1.47708 11.3711 1.56302ZM12.332 4.77784C12.7695 4.94191 13.1406 5.26612 13.3359 5.64893C13.3867 5.7505 13.4297 5.84424 13.4297 5.85596C13.4297 5.86768 12.6367 5.87549 11.6719 5.87549H9.91406L10.0273 5.64893C10.2383 5.23487 10.5508 4.94581 10.9726 4.77784C11.375 4.6216 11.918 4.61769 12.332 4.77784Z" fill="#3D3D3D"/>
<path d="M3.41015 7.1173C3.18359 7.19152 3 7.45714 3 7.71105C3 7.78917 3.0625 8.09776 3.13672 8.39464C3.30078 9.04698 3.44531 9.90244 3.53125 10.7188C3.58593 11.2149 3.60156 11.9845 3.62109 14.9454C3.64453 18.5196 3.64453 18.5665 3.72656 18.6719C3.85937 18.8516 3.99999 18.9336 4.20702 18.9532C4.47655 18.9766 4.73046 18.8555 4.83593 18.6446C4.91015 18.504 4.91405 18.4102 4.91405 17.1641V15.836H6.76951H8.62106L8.63278 17.1993C8.6445 18.5079 8.64841 18.5704 8.72653 18.6719C8.85934 18.8516 8.99997 18.9336 9.207 18.9532C9.47653 18.9766 9.73043 18.8555 9.8359 18.6446C9.91012 18.5001 9.91403 18.4063 9.91403 16.1524C9.91403 13.8438 9.91403 13.8048 9.82809 13.5821C9.71481 13.2735 9.39059 12.9493 9.082 12.836C8.86325 12.7501 8.81247 12.7501 6.85154 12.7501H4.84765L4.82421 11.8204C4.78515 10.3087 4.57812 8.78526 4.26171 7.67589C4.14062 7.25402 3.76171 7.00402 3.41015 7.1173ZM8.58591 14.3126V14.6251H6.71092H4.83593V14.3126V14.0001H6.71092H8.58591V14.3126Z" fill="#3D3D3D"/>
<path d="M19.5351 7.16413C19.3437 7.27741 19.289 7.3985 19.1523 7.95709C18.8437 9.2149 18.625 11.0704 18.625 12.4453V12.75H16.6055H14.582L14.3828 12.8438C14.1016 12.9727 13.8828 13.1875 13.7539 13.4453L13.6445 13.668V16.1485V18.6289L13.7344 18.7578C13.8633 18.9336 14.0117 19 14.2812 19C14.5547 19 14.7383 18.8984 14.8437 18.6875C14.9062 18.5664 14.9141 18.4102 14.9141 17.2109V15.875H16.7695H18.6211L18.6328 17.25C18.6445 18.6211 18.6445 18.6289 18.7343 18.7578C18.8633 18.9336 19.0117 19 19.2812 19C19.5547 19 19.7382 18.8984 19.8437 18.6875C19.9101 18.5625 19.914 18.3281 19.914 15.5235C19.914 13.8594 19.9336 12.1602 19.9531 11.7539C20.0234 10.4102 20.164 9.39068 20.4218 8.39849C20.4843 8.14459 20.539 7.9024 20.539 7.85553C20.539 7.586 20.3398 7.26569 20.1054 7.14069C19.9492 7.06256 19.6836 7.07038 19.5351 7.16413ZM18.5859 14.3125V14.625H16.7109H14.8359V14.3125V14H16.7109H18.5859V14.3125Z" fill="#3D3D3D"/>
<path d="M6.37097 10.3125C6.17956 10.4063 6.08582 10.586 6.08582 10.8594C6.08582 11.1407 6.17566 11.3282 6.36316 11.4297C6.48816 11.4961 6.6405 11.5 8.78893 11.5H11.0858V15.0469C11.0858 18.4063 11.0897 18.5977 11.1561 18.7227C11.2538 18.9063 11.4452 19 11.7108 19C11.9764 19 12.1678 18.9063 12.2655 18.7227C12.3319 18.5977 12.3358 18.4063 12.3358 15.0469V11.5H14.6326C16.7811 11.5 16.9334 11.4961 17.0584 11.4297C17.242 11.3321 17.3358 11.1407 17.3358 10.875C17.3358 10.6094 17.242 10.418 17.0584 10.3204C16.9334 10.254 16.6873 10.25 11.7108 10.25C7.01159 10.25 6.48425 10.2579 6.37097 10.3125Z" fill="#3D3D3D"/>
</svg>
